<svg width="180" height="180" viewBox="0 0 180 180" xmlns="http://www.w3.org/2000/svg">
  <defs>
    <!-- Blue gradient -->
    <linearGradient id="blueGradient" x1="0%" y1="0%" x2="100%" y2="100%">
      <stop offset="0%" style="stop-color:#4A90E2;stop-opacity:1" />
      <stop offset="30%" style="stop-color:#357ABD;stop-opacity:1" />
      <stop offset="70%" style="stop-color:#2E5F8A;stop-opacity:1" />
      <stop offset="100%" style="stop-color:#1E3A5F;stop-opacity:1" />
    </linearGradient>
    
    <!-- White gradient -->
    <linearGradient id="whiteGradient" x1="0%" y1="0%" x2="100%" y2="100%">
      <stop offset="0%" style="stop-color:#FFFFFF;stop-opacity:1" />
      <stop offset="50%" style="stop-color:#F8F9FA;stop-opacity:1" />
      <stop offset="100%" style="stop-color:#E9ECEF;stop-opacity:1" />
    </linearGradient>
    
    <!-- Blue accent gradient -->
    <linearGradient id="blueAccent" x1="0%" y1="0%" x2="100%" y2="100%">
      <stop offset="0%" style="stop-color:#5BA0F2;stop-opacity:1" />
      <stop offset="100%" style="stop-color:#4A90E2;stop-opacity:1" />
    </linearGradient>
    
    <!-- Drop shadow -->
    <filter id="dropShadow" x="-20%" y="-20%" width="140%" height="140%">
      <feDropShadow dx="3" dy="6" stdDeviation="4" flood-color="#000000" flood-opacity="0.4"/>
    </filter>
    
    <!-- Inner glow -->
    <filter id="innerGlow" x="-50%" y="-50%" width="200%" height="200%">
      <feGaussianBlur stdDeviation="3" result="coloredBlur"/>
      <feMerge> 
        <feMergeNode in="coloredBlur"/>
        <feMergeNode in="SourceGraphic"/>
      </feMerge>
    </filter>
    
    <!-- Shine effect -->
    <linearGradient id="shine" x1="0%" y1="0%" x2="100%" y2="100%">
      <stop offset="0%" style="stop-color:#FFFFFF;stop-opacity:0.8" />
      <stop offset="50%" style="stop-color:#FFFFFF;stop-opacity:0.3" />
      <stop offset="100%" style="stop-color:#FFFFFF;stop-opacity:0" />
    </linearGradient>
  </defs>
  
  <!-- Background circle with blue gradient -->
  <circle cx="90" cy="90" r="85" fill="url(#blueGradient)" filter="url(#dropShadow)"/>
  
  <!-- Inner white circle -->
  <circle cx="90" cy="90" r="70" fill="url(#whiteGradient)" filter="url(#innerGlow)"/>
  
  <!-- Shine overlay -->
  <circle cx="90" cy="90" r="70" fill="url(#shine)" opacity="0.6"/>
  
  <!-- Letter "B" in blue -->
  <g transform="translate(90, 90)">
    <!-- Main B shape - top curve -->
    <path d="M -25 -35 L -25 -15 L -5 -15 L -5 -25 L 15 -25 L 25 -35 L 15 -35 L 15 -25 L -5 -25 L -5 -35 L -25 -35 Z" 
          fill="url(#blueAccent)" opacity="0.95"/>
    
    <!-- Main B shape - bottom curve -->
    <path d="M -25 15 L -25 35 L -5 35 L -5 25 L 15 25 L 25 35 L 15 35 L 15 25 L -5 25 L -5 35 L -25 35 Z" 
          fill="url(#blueAccent)" opacity="0.95"/>
    
    <!-- B vertical line -->
    <rect x="-25" y="-35" width="8" height="70" fill="url(#blueAccent)" opacity="0.95"/>
    
    <!-- B crossbar -->
    <rect x="-25" y="-8" width="50" height="16" fill="url(#blueAccent)" opacity="0.95" rx="2"/>
  </g>
  
  <!-- Decorative elements -->
  <circle cx="25" cy="25" r="10" fill="#FFFFFF" opacity="0.4"/>
  <circle cx="155" cy="25" r="8" fill="#FFFFFF" opacity="0.3"/>
  <circle cx="25" cy="155" r="8" fill="#FFFFFF" opacity="0.3"/>
  <circle cx="155" cy="155" r="10" fill="#FFFFFF" opacity="0.4"/>
  
  <!-- Subtle border -->
  <circle cx="90" cy="90" r="88" fill="none" stroke="#FFFFFF" stroke-width="2" opacity="0.15"/>
  
  <!-- Highlight dots -->
  <circle cx="45" cy="45" r="3" fill="#4A90E2" opacity="0.6"/>
  <circle cx="135" cy="45" r="2" fill="#4A90E2" opacity="0.5"/>
  <circle cx="45" cy="135" r="2" fill="#4A90E2" opacity="0.5"/>
  <circle cx="135" cy="135" r="3" fill="#4A90E2" opacity="0.6"/>
</svg> 